<svg width="85" height="85" viewBox="0 0 85 85" fill="none" xmlns="http://www.w3.org/2000/svg">
<path d="M81.3652 25.5536C78.9133 14.016 72.0606 6.60226 60.4262 3.95044C49.1669 1.3837 37.8195 1.47446 26.5033 3.49665C21.0484 4.46946 15.9741 6.5115 11.792 10.329C6.85699 14.8413 4.50739 20.6867 3.32549 27.0709C1.62934 36.2431 1.68332 45.4635 2.79704 54.6981C2.97035 55.8155 3.11808 56.9358 3.32264 58.0448C5.5927 70.3679 12.4881 78.4397 24.9776 81.1596C36.1574 83.5958 47.4167 83.5249 58.642 81.4687C64.1055 80.4675 69.1797 78.4255 73.322 74.5569C79.0696 69.1909 81.2004 62.1912 82.2005 54.6981C83.3483 44.9445 83.4165 35.2107 81.3652 25.5536Z" fill="#00FFA3" stroke="#141844" stroke-width="4"/>
<path d="M17 43.0175C17 39.6941 19.6941 37 23.0175 37C26.3408 37 29.0349 39.6941 29.0349 43.0175C29.0349 46.3408 26.3408 49.0349 23.0175 49.0349C19.6941 49.0349 17 46.3408 17 43.0175Z" fill="#141844"/>
<path d="M56.9651 43.0175C56.9651 39.6941 59.6592 37 62.9825 37C66.3059 37 69 39.6941 69 43.0175C69 46.3408 66.3059 49.0349 62.9825 49.0349C59.6592 49.0349 56.9651 46.3408 56.9651 43.0175Z" fill="#141844"/>
<path d="M49.2445 43.0175C49.2445 43.8077 49.0889 44.5902 48.7865 45.3203C48.4841 46.0503 48.0408 46.7137 47.4821 47.2725C46.9233 47.8312 46.2599 48.2745 45.5299 48.5769C44.7998 48.8793 44.0173 49.0349 43.2271 49.0349C42.4368 49.0349 41.6544 48.8793 40.9243 48.5769C40.1942 48.2745 39.5309 47.8312 38.9721 47.2725C38.4133 46.7137 37.9701 46.0503 37.6677 45.3203C37.3653 44.5902 37.2096 43.8077 37.2096 43.0175L49.2445 43.0175Z" fill="#141844"/>
</svg>
